<svg id="visual" viewBox="0 0 900 600" width="900" height="600" xmlns="http://www.w3.org/2000/svg" xmlns:xlink="http://www.w3.org/1999/xlink" version="1.1">
  <!-- Define the shadow filter -->
  <defs>
    <filter id="shadow" x="-50%" y="-50%" width="200%" height="200%">
      <feDropShadow dx="0" dy="-5" stdDeviation="10" flood-color="#D2D2D2" />
    </filter>
  </defs>

  <!-- Apply the shadow filter to the path -->
  <path d="M0 543L10 539.7C20 536.3 40 529.7 60 525.5C80 521.3 100 519.7 120 521.5C140 523.3 160 528.7 180 534.5C200 540.3 220 546.7 240 542C260 537.3 280 521.7 300 514.8C320 508 340 510 360 516.5C380 523 400 534 420 538.8C440 543.7 460 542.3 480 546.3C500 550.3 520 559.7 540 555C560 550.3 580 531.7 600 532.3C620 533 640 553 660 552C680 551 700 529 720 522.3C740 515.7 760 524.3 780 532.8C800 541.3 820 549.7 840 551.2C860 552.7 880 547.3 890 544.7L900 542L900 601L890 601C880 601 860 601 840 601C820 601 800 601 780 601C760 601 740 601 720 601C700 601 680 601 660 601C640 601 620 601 600 601C580 601 560 601 540 601C520 601 500 601 480 601C460 601 440 601 420 601C400 601 380 601 360 601C340 601 320 601 300 601C280 601 260 601 240 601C220 601 200 601 180 601C160 601 140 601 120 601C100 601 80 601 60 601C40 601 20 601 10 601L0 601Z" fill="#fff" filter="url(#shadow)" stroke-linecap="round" stroke-linejoin="miter"></path>
</svg>
